<svg version="1.1" viewBox="0.0 0.0 193.38582677165354 192.98950131233596" fill="none" stroke="none" stroke-linecap="square" stroke-miterlimit="10" xmlns:xlink="http://www.w3.org/1999/xlink" xmlns="http://www.w3.org/2000/svg"><clipPath id="p.0"><path d="m0 0l193.38583 0l0 192.9895l-193.38583 0l0 -192.9895z" clip-rule="nonzero"/></clipPath><g clip-path="url(#p.0)"><path fill="#000000" fill-opacity="0.0" d="m0 0l193.38583 0l0 192.9895l-193.38583 0z" fill-rule="evenodd"/><path fill="#fb3453" d="m-0.002624672 0l193.38583 0l0 192.97638l-193.38583 0z" fill-rule="evenodd"/><path fill="#fb3453" d="m49.205807 18.013693l47.968502 0l0 48.944878l-47.968502 0z" fill-rule="evenodd"/><path fill="#e5f8f4" d="m55.740063 66.95057l0 -46.015747l34.89764 46.015747z" fill-rule="evenodd"/><path fill="#e5f8f4" d="m90.6394 18.018522l0 21.826773l-16.566925 -21.826773z" fill-rule="evenodd"/><path fill="#e5f8f4" d="m88.69292 72.120735l-42.629925 0l0 0c-23.543856 0 -42.62992 20.087257 -42.62992 44.866142c0 24.778885 19.086065 44.866135 42.62992 44.866135l42.629925 0z" fill-rule="evenodd"/><path fill="#fb3453" d="m88.99566 154.55109l-22.787407 0l0 0c-12.585133 0 -22.7874 -12.12709 -22.7874 -27.086617c0 -14.959518 10.202267 -27.086609 22.7874 -27.086609l22.787407 0z" fill-rule="evenodd"/><path fill="#30e8bd" d="m88.69292 125.13911l0 0c0 -27.962135 22.667786 -50.62992 50.629913 -50.62992l0 0c13.427887 0 26.305817 5.3342056 35.800766 14.829163c9.494949 9.494949 14.829163 22.372871 14.829163 35.80076l0 0c0 27.962135 -22.667786 50.62992 -50.62993 50.62992l0 0c-27.962128 0 -50.629913 -22.667786 -50.629913 -50.62992z" fill-rule="evenodd"/><path fill="#e5f8f4" d="m66.04724 137.79265l22.645676 0l0 37.984253l-22.645676 0z" fill-rule="evenodd"/><path fill="#e5f8f4" d="m51.811024 124.93438l36.881893 0l0 17.889763l-36.881893 0z" fill-rule="evenodd"/><path fill="#fb3453" d="m123.438324 84.8294l31.769028 0l-6.3538055 55.989494l-19.061417 0z" fill-rule="evenodd"/><path fill="#fb3453" d="m128.0 159.29659l0 0c0 -6.253433 5.069412 -11.32283 11.32283 -11.32283l0 0c3.003006 0 5.883011 1.1929321 8.006454 3.3163757c2.1234436 2.1234436 3.316391 5.0034485 3.316391 8.006454l0 0c0 6.253433 -5.069412 11.32283 -11.322845 11.32283l0 0c-6.253418 0 -11.32283 -5.069397 -11.32283 -11.32283z" fill-rule="evenodd"/><path fill="#e5f8f4" d="m49.20095 66.95857l-20.598425 0l0 0c-11.376196 0 -20.598427 -10.956684 -20.598427 -24.472439c0 -13.515757 9.22223 -24.47244 20.598427 -24.47244l20.598425 0z" fill-rule="evenodd"/><path fill="#fb3453" d="m44.436913 42.890484l-8.283466 0l0 0c-4.574831 0 -8.283464 -4.4066467 -8.283464 -9.842522c0 -5.435873 3.7086334 -9.842518 8.283464 -9.842518l8.283466 0z" fill-rule="evenodd"/><path fill="#e5f8f4" d="m137.42691 18.016209l-20.125984 0l0 0c-11.1152725 0 -20.125984 9.483103 -20.125984 21.181103c0 11.698002 9.010712 21.181103 20.125984 21.181103l20.125984 0z" fill-rule="evenodd"/><path fill="#fb3453" d="m137.56984 56.934185l-10.74015 0l0 0c-5.9316254 0 -10.740158 -5.725113 -10.740158 -12.787399c0 -7.06229 4.8085327 -12.787403 10.740158 -12.787403l10.74015 0z" fill-rule="evenodd"/><path fill="#e5f8f4" d="m126.73491 47.270645l10.67717 0l0 19.685043l-10.67717 0z" fill-rule="evenodd"/><path fill="#e5f8f4" d="m120.013855 42.951202l17.417328 0l0 8.440945l-17.417328 0z" fill-rule="evenodd"/><path fill="#fb3453" d="m137.41316 18.013693l47.968506 0l0 48.944878l-47.968506 0z" fill-rule="evenodd"/><path fill="#e5f8f4" d="m143.94742 66.95057l0 -46.015747l34.89763 46.015747z" fill-rule="evenodd"/><path fill="#e5f8f4" d="m178.84674 18.018522l0 21.826773l-16.566925 -21.826773z" fill-rule="evenodd"/></g></svg>