<svg version="1.1" viewBox="0.0 0.0 279.40157480314963 122.8740157480315" fill="none" stroke="none" stroke-linecap="square" stroke-miterlimit="10" xmlns:xlink="http://www.w3.org/1999/xlink" xmlns="http://www.w3.org/2000/svg"><clipPath id="p.0"><path d="m0 0l279.40158 0l0 122.874016l-279.40158 0l0 -122.874016z" clip-rule="nonzero"/></clipPath><g clip-path="url(#p.0)"><path fill="#000000" fill-opacity="0.0" d="m0 0l279.40158 0l0 122.874016l-279.40158 0z" fill-rule="evenodd"/><path fill="#fb3453" d="m-0.002624672 0l279.40158 0l0 122.86614l-279.40158 0z" fill-rule="evenodd"/><path fill="#fb3453" d="m45.472416 12.683727l41.19685 0l0 48.94488l-41.19685 0z" fill-rule="evenodd"/><path fill="#e5f8f4" d="m52.00647 61.61963l0 -46.015747l34.897636 46.015747z" fill-rule="evenodd"/><path fill="#e5f8f4" d="m86.9058 12.687582l0 21.826773l-16.566925 -21.826773z" fill-rule="evenodd"/><path fill="#e5f8f4" d="m173.87206 9.604987l-42.629913 0l0 0c-23.543854 0 -42.62992 20.087257 -42.62992 44.866142c0 24.778885 19.086067 44.866142 42.62992 44.866142l42.629913 0z" fill-rule="evenodd"/><path fill="#fb3453" d="m174.1748 92.03534l-22.7874 0l0 0c-12.585144 0 -22.7874 -12.12709 -22.7874 -27.086617c0 -14.959522 10.202255 -27.086613 22.7874 -27.086613l22.7874 0z" fill-rule="evenodd"/><path fill="#30e8bd" d="m173.87206 62.62336l0 0c0 -27.962135 22.6678 -50.62992 50.62993 -50.62992l0 0c13.427887 0 26.305801 5.3342075 35.80075 14.829161c9.494965 9.494951 14.829163 22.37287 14.829163 35.80076l0 0c0 27.962135 -22.667786 50.62992 -50.629913 50.62992l0 0c-27.962128 0 -50.62993 -22.667786 -50.62993 -50.62992z" fill-rule="evenodd"/><path fill="#e5f8f4" d="m151.2264 75.2769l22.64566 0l0 37.984253l-22.64566 0z" fill-rule="evenodd"/><path fill="#e5f8f4" d="m136.99017 62.418636l36.88188 0l0 17.88976l-36.88188 0z" fill-rule="evenodd"/><path fill="#fb3453" d="m208.61746 22.313648l31.769028 0l-6.3538055 55.9895l-19.061417 0z" fill-rule="evenodd"/><path fill="#fb3453" d="m213.17915 96.78084l0 0c0 -6.2534256 5.069397 -11.32283 11.32283 -11.32283l0 0c3.003006 0 5.883011 1.1929321 8.006454 3.3163757c2.1234436 2.1234436 3.3163757 5.003456 3.3163757 8.006454l0 0c0 6.253433 -5.069397 11.322838 -11.32283 11.322838l0 0c-6.253433 0 -11.32283 -5.0694046 -11.32283 -11.322838z" fill-rule="evenodd"/><path fill="#e5f8f4" d="m45.467354 61.627632l-20.598425 0l0 0c-11.376196 0 -20.598425 -10.956684 -20.598425 -24.472439c0 -13.515757 9.222229 -24.472443 20.598425 -24.472443l20.598425 0z" fill-rule="evenodd"/><path fill="#fb3453" d="m40.703316 37.559544l-8.283466 0l0 0c-4.574829 0 -8.283463 -4.4066467 -8.283463 -9.842522c0 -5.435873 3.7086334 -9.842518 8.283463 -9.842518l8.283466 0z" fill-rule="evenodd"/><path fill="#e5f8f4" d="m45.46719 63.625984l-20.598423 0l0 0c-11.376197 0 -20.598425 9.483101 -20.598425 21.181099c0 11.698006 9.222229 21.181107 20.598425 21.181107l20.598423 0z" fill-rule="evenodd"/><path fill="#fb3453" d="m45.666714 102.54199l-11.244095 0l0 0c-6.20994 0 -11.244093 -5.725113 -11.244093 -12.787399c0 -7.0622864 5.034153 -12.787399 11.244093 -12.787399l11.244095 0z" fill-rule="evenodd"/><path fill="#e5f8f4" d="m34.270885 92.87995l11.370079 0l0 19.685036l-11.370079 0z" fill-rule="evenodd"/><path fill="#e5f8f4" d="m27.110273 88.56036l18.55118 0l0 8.4409485l-18.55118 0z" fill-rule="evenodd"/><path fill="#fb3453" d="m46.441086 62.419716l41.196854 0l0 48.944885l-41.196854 0z" fill-rule="evenodd"/><path fill="#e5f8f4" d="m52.005157 112.559265l0 -46.015755l34.897636 46.015755z" fill-rule="evenodd"/><path fill="#e5f8f4" d="m86.90449 63.627213l0 21.826775l-16.566925 -21.826775z" fill-rule="evenodd"/></g></svg>